# xmcd
#
# Track frame offsets: 
#        150
#        26792
#        45647
#        60825
#        75815
#        91900
#        107645
#        126835
#        134630
#        150152
#        169095
#        183210
#
# Disc length: 2720 seconds
#
# Revision: 1
# Processed by: cddbd v1.5.2PL0 Copyright (c) Steve Scherf et al.
# Submitted via: ExactAudioCopyFreeDBPlugin 1.0
#
DISCID=860a9e0c
DTITLE=William Tang - Blues Movies
DYEAR=1994
DGENRE=Blues
TTITLE0=Star Wars
TTITLE1=Dying Young
TTITLE2=Pink Panther
TTITLE3=Free As the Wind
TTITLE4=The Good, The Bad And The Ungly
TTITLE5=Windmills Of Your Mind
TTITLE6=Baby Elephant Walk
TTITLE7=Once Upon A Time In America
TTITLE8=Mission:Impossible
TTITLE9=Local Hero
TTITLE10=We Have All The Time In World
TTITLE11=Evergreen
EXTD=
EXTT0=
EXTT1=
EXTT2=
EXTT3=
EXTT4=
EXTT5=
EXTT6=
EXTT7=
EXTT8=
EXTT9=
EXTT10=
EXTT11=
PLAYORDER=
